<?xml version="1.0" encoding="utf-8" standalone="no"?>
<!DOCTYPE svg PUBLIC "-//W3C//DTD SVG 1.1//EN"
  "http://www.w3.org/Graphics/SVG/1.1/DTD/svg11.dtd">
<!-- Created with matplotlib (https://matplotlib.org/) -->
<svg height="288pt" version="1.1" viewBox="0 0 360 288" width="360pt" xmlns="http://www.w3.org/2000/svg" xmlns:xlink="http://www.w3.org/1999/xlink">
 <metadata>
  <rdf:RDF xmlns:cc="http://creativecommons.org/ns#" xmlns:dc="http://purl.org/dc/elements/1.1/" xmlns:rdf="http://www.w3.org/1999/02/22-rdf-syntax-ns#">
   <cc:Work>
    <dc:type rdf:resource="http://purl.org/dc/dcmitype/StillImage"/>
    <dc:date>2021-06-10T11:50:06.458104</dc:date>
    <dc:format>image/svg+xml</dc:format>
    <dc:creator>
     <cc:Agent>
      <dc:title>Matplotlib v3.3.2, https://matplotlib.org/</dc:title>
     </cc:Agent>
    </dc:creator>
   </cc:Work>
  </rdf:RDF>
 </metadata>
 <defs>
  <style type="text/css">*{stroke-linecap:butt;stroke-linejoin:round;}</style>
 </defs>
 <g id="figure_1">
  <g id="patch_1">
   <path d="M 0 288 
L 360 288 
L 360 0 
L 0 0 
z
" style="fill:none;"/>
  </g>
  <g id="axes_1">
   <g id="patch_2">
    <path d="M 45 252 
L 324 252 
L 324 34.56 
L 45 34.56 
z
" style="fill:#ffffff;"/>
   </g>
   <g id="PathCollection_1">
    <defs>
     <path d="M 0 1.581139 
C 0.419323 1.581139 0.821528 1.41454 1.118034 1.118034 
C 1.41454 0.821528 1.581139 0.419323 1.581139 0 
C 1.581139 -0.419323 1.41454 -0.821528 1.118034 -1.118034 
C 0.821528 -1.41454 0.419323 -1.581139 0 -1.581139 
C -0.419323 -1.581139 -0.821528 -1.41454 -1.118034 -1.118034 
C -1.41454 -0.821528 -1.581139 -0.419323 -1.581139 0 
C -1.581139 0.419323 -1.41454 0.821528 -1.118034 1.118034 
C -0.821528 1.41454 -0.419323 1.581139 0 1.581139 
z
" id="mf9951a09dd" style="stroke:#ffffff;stroke-width:0.252982;"/>
    </defs>
    <g clip-path="url(#p404fb28c5c)">
     <use style="fill:#1f77b4;stroke:#ffffff;stroke-width:0.252982;" x="311.318182" xlink:href="#mf9951a09dd" y="44.443636"/>
     <use style="fill:#1f77b4;stroke:#ffffff;stroke-width:0.252982;" x="311.206082" xlink:href="#mf9951a09dd" y="44.447252"/>
     <use style="fill:#1f77b4;stroke:#ffffff;stroke-width:0.252982;" x="311.088391" xlink:href="#mf9951a09dd" y="44.451051"/>
     <use style="fill:#1f77b4;stroke:#ffffff;stroke-width:0.252982;" x="310.964829" xlink:href="#mf9951a09dd" y="44.455043"/>
     <use style="fill:#1f77b4;stroke:#ffffff;stroke-width:0.252982;" x="310.835105" xlink:href="#mf9951a09dd" y="44.459238"/>
     <use style="fill:#1f77b4;stroke:#ffffff;stroke-width:0.252982;" x="310.698913" xlink:href="#mf9951a09dd" y="44.463647"/>
     <use style="fill:#1f77b4;stroke:#ffffff;stroke-width:0.252982;" x="310.555931" xlink:href="#mf9951a09dd" y="44.468281"/>
     <use style="fill:#1f77b4;stroke:#ffffff;stroke-width:0.252982;" x="310.405821" xlink:href="#mf9951a09dd" y="44.473151"/>
     <use style="fill:#1f77b4;stroke:#ffffff;stroke-width:0.252982;" x="310.248229" xlink:href="#mf9951a09dd" y="44.478269"/>
     <use style="fill:#1f77b4;stroke:#ffffff;stroke-width:0.252982;" x="310.082784" xlink:href="#mf9951a09dd" y="44.48365"/>
     <use style="fill:#1f77b4;stroke:#ffffff;stroke-width:0.252982;" x="309.909096" xlink:href="#mf9951a09dd" y="44.489305"/>
     <use style="fill:#1f77b4;stroke:#ffffff;stroke-width:0.252982;" x="309.726756" xlink:href="#mf9951a09dd" y="44.495251"/>
     <use style="fill:#1f77b4;stroke:#ffffff;stroke-width:0.252982;" x="309.535333" xlink:href="#mf9951a09dd" y="44.501501"/>
     <use style="fill:#1f77b4;stroke:#ffffff;stroke-width:0.252982;" x="309.334379" xlink:href="#mf9951a09dd" y="44.508073"/>
     <use style="fill:#1f77b4;stroke:#ffffff;stroke-width:0.252982;" x="309.12342" xlink:href="#mf9951a09dd" y="44.514982"/>
     <use style="fill:#1f77b4;stroke:#ffffff;stroke-width:0.252982;" x="308.901961" xlink:href="#mf9951a09dd" y="44.522248"/>
     <use style="fill:#1f77b4;stroke:#ffffff;stroke-width:0.252982;" x="308.669481" xlink:href="#mf9951a09dd" y="44.529888"/>
     <use style="fill:#1f77b4;stroke:#ffffff;stroke-width:0.252982;" x="308.425435" xlink:href="#mf9951a09dd" y="44.537923"/>
     <use style="fill:#1f77b4;stroke:#ffffff;stroke-width:0.252982;" x="308.169252" xlink:href="#mf9951a09dd" y="44.546374"/>
     <use style="fill:#1f77b4;stroke:#ffffff;stroke-width:0.252982;" x="307.90033" xlink:href="#mf9951a09dd" y="44.555262"/>
     <use style="fill:#1f77b4;stroke:#ffffff;stroke-width:0.252982;" x="307.61804" xlink:href="#mf9951a09dd" y="44.564613"/>
     <use style="fill:#1f77b4;stroke:#ffffff;stroke-width:0.252982;" x="307.321722" xlink:href="#mf9951a09dd" y="44.574449"/>
     <use style="fill:#1f77b4;stroke:#ffffff;stroke-width:0.252982;" x="307.010685" xlink:href="#mf9951a09dd" y="44.584799"/>
     <use style="fill:#1f77b4;stroke:#ffffff;stroke-width:0.252982;" x="306.684201" xlink:href="#mf9951a09dd" y="44.595689"/>
     <use style="fill:#1f77b4;stroke:#ffffff;stroke-width:0.252982;" x="306.34151" xlink:href="#mf9951a09dd" y="44.607149"/>
     <use style="fill:#1f77b4;stroke:#ffffff;stroke-width:0.252982;" x="305.981814" xlink:href="#mf9951a09dd" y="44.61921"/>
     <use style="fill:#1f77b4;stroke:#ffffff;stroke-width:0.252982;" x="305.604277" xlink:href="#mf9951a09dd" y="44.631906"/>
     <use style="fill:#1f77b4;stroke:#ffffff;stroke-width:0.252982;" x="305.208021" xlink:href="#mf9951a09dd" y="44.645271"/>
     <use style="fill:#1f77b4;stroke:#ffffff;stroke-width:0.252982;" x="304.792127" xlink:href="#mf9951a09dd" y="44.659342"/>
     <use style="fill:#1f77b4;stroke:#ffffff;stroke-width:0.252982;" x="304.355633" xlink:href="#mf9951a09dd" y="44.67416"/>
     <use style="fill:#1f77b4;stroke:#ffffff;stroke-width:0.252982;" x="303.897528" xlink:href="#mf9951a09dd" y="44.689765"/>
     <use style="fill:#1f77b4;stroke:#ffffff;stroke-width:0.252982;" x="303.416756" xlink:href="#mf9951a09dd" y="44.706202"/>
     <use style="fill:#1f77b4;stroke:#ffffff;stroke-width:0.252982;" x="302.912209" xlink:href="#mf9951a09dd" y="44.723518"/>
     <use style="fill:#1f77b4;stroke:#ffffff;stroke-width:0.252982;" x="302.382725" xlink:href="#mf9951a09dd" y="44.741764"/>
     <use style="fill:#1f77b4;stroke:#ffffff;stroke-width:0.252982;" x="301.827089" xlink:href="#mf9951a09dd" y="44.760992"/>
     <use style="fill:#1f77b4;stroke:#ffffff;stroke-width:0.252982;" x="301.24403" xlink:href="#mf9951a09dd" y="44.78126"/>
     <use style="fill:#1f77b4;stroke:#ffffff;stroke-width:0.252982;" x="300.632214" xlink:href="#mf9951a09dd" y="44.802627"/>
     <use style="fill:#1f77b4;stroke:#ffffff;stroke-width:0.252982;" x="299.990246" xlink:href="#mf9951a09dd" y="44.825159"/>
     <use style="fill:#1f77b4;stroke:#ffffff;stroke-width:0.252982;" x="299.316666" xlink:href="#mf9951a09dd" y="44.848923"/>
     <use style="fill:#1f77b4;stroke:#ffffff;stroke-width:0.252982;" x="298.609948" xlink:href="#mf9951a09dd" y="44.873992"/>
     <use style="fill:#1f77b4;stroke:#ffffff;stroke-width:0.252982;" x="297.868494" xlink:href="#mf9951a09dd" y="44.900446"/>
     <use style="fill:#1f77b4;stroke:#ffffff;stroke-width:0.252982;" x="297.090631" xlink:href="#mf9951a09dd" y="44.928367"/>
     <use style="fill:#1f77b4;stroke:#ffffff;stroke-width:0.252982;" x="296.274615" xlink:href="#mf9951a09dd" y="44.957845"/>
     <use style="fill:#1f77b4;stroke:#ffffff;stroke-width:0.252982;" x="295.418617" xlink:href="#mf9951a09dd" y="44.988974"/>
     <use style="fill:#1f77b4;stroke:#ffffff;stroke-width:0.252982;" x="294.520731" xlink:href="#mf9951a09dd" y="45.021859"/>
     <use style="fill:#1f77b4;stroke:#ffffff;stroke-width:0.252982;" x="293.578963" xlink:href="#mf9951a09dd" y="45.056607"/>
     <use style="fill:#1f77b4;stroke:#ffffff;stroke-width:0.252982;" x="292.591233" xlink:href="#mf9951a09dd" y="45.093337"/>
     <use style="fill:#1f77b4;stroke:#ffffff;stroke-width:0.252982;" x="291.555369" xlink:href="#mf9951a09dd" y="45.132176"/>
     <use style="fill:#1f77b4;stroke:#ffffff;stroke-width:0.252982;" x="290.469106" xlink:href="#mf9951a09dd" y="45.173259"/>
     <use style="fill:#1f77b4;stroke:#ffffff;stroke-width:0.252982;" x="289.330082" xlink:href="#mf9951a09dd" y="45.216733"/>
     <use style="fill:#1f77b4;stroke:#ffffff;stroke-width:0.252982;" x="288.135835" xlink:href="#mf9951a09dd" y="45.262754"/>
     <use style="fill:#1f77b4;stroke:#ffffff;stroke-width:0.252982;" x="286.883803" xlink:href="#mf9951a09dd" y="45.311495"/>
     <use style="fill:#1f77b4;stroke:#ffffff;stroke-width:0.252982;" x="285.571318" xlink:href="#mf9951a09dd" y="45.363137"/>
     <use style="fill:#1f77b4;stroke:#ffffff;stroke-width:0.252982;" x="284.195606" xlink:href="#mf9951a09dd" y="45.417879"/>
     <use style="fill:#1f77b4;stroke:#ffffff;stroke-width:0.252982;" x="282.753785" xlink:href="#mf9951a09dd" y="45.475938"/>
     <use style="fill:#1f77b4;stroke:#ffffff;stroke-width:0.252982;" x="281.242864" xlink:href="#mf9951a09dd" y="45.537544"/>
     <use style="fill:#1f77b4;stroke:#ffffff;stroke-width:0.252982;" x="279.659738" xlink:href="#mf9951a09dd" y="45.602953"/>
     <use style="fill:#1f77b4;stroke:#ffffff;stroke-width:0.252982;" x="278.001195" xlink:href="#mf9951a09dd" y="45.672438"/>
     <use style="fill:#1f77b4;stroke:#ffffff;stroke-width:0.252982;" x="276.263909" xlink:href="#mf9951a09dd" y="45.746298"/>
     <use style="fill:#1f77b4;stroke:#ffffff;stroke-width:0.252982;" x="274.444449" xlink:href="#mf9951a09dd" y="45.824861"/>
     <use style="fill:#1f77b4;stroke:#ffffff;stroke-width:0.252982;" x="272.539271" xlink:href="#mf9951a09dd" y="45.908481"/>
     <use style="fill:#1f77b4;stroke:#ffffff;stroke-width:0.252982;" x="270.544732" xlink:href="#mf9951a09dd" y="45.997549"/>
     <use style="fill:#1f77b4;stroke:#ffffff;stroke-width:0.252982;" x="268.45709" xlink:href="#mf9951a09dd" y="46.092492"/>
     <use style="fill:#1f77b4;stroke:#ffffff;stroke-width:0.252982;" x="266.272511" xlink:href="#mf9951a09dd" y="46.193776"/>
     <use style="fill:#1f77b4;stroke:#ffffff;stroke-width:0.252982;" x="263.987078" xlink:href="#mf9951a09dd" y="46.301916"/>
     <use style="fill:#1f77b4;stroke:#ffffff;stroke-width:0.252982;" x="261.596806" xlink:href="#mf9951a09dd" y="46.417478"/>
     <use style="fill:#1f77b4;stroke:#ffffff;stroke-width:0.252982;" x="259.097653" xlink:href="#mf9951a09dd" y="46.541086"/>
     <use style="fill:#1f77b4;stroke:#ffffff;stroke-width:0.252982;" x="256.48554" xlink:href="#mf9951a09dd" y="46.67343"/>
     <use style="fill:#1f77b4;stroke:#ffffff;stroke-width:0.252982;" x="253.756375" xlink:href="#mf9951a09dd" y="46.815271"/>
     <use style="fill:#1f77b4;stroke:#ffffff;stroke-width:0.252982;" x="250.906078" xlink:href="#mf9951a09dd" y="46.967457"/>
     <use style="fill:#1f77b4;stroke:#ffffff;stroke-width:0.252982;" x="247.930619" xlink:href="#mf9951a09dd" y="47.130925"/>
     <use style="fill:#1f77b4;stroke:#ffffff;stroke-width:0.252982;" x="244.826055" xlink:href="#mf9951a09dd" y="47.306721"/>
     <use style="fill:#1f77b4;stroke:#ffffff;stroke-width:0.252982;" x="241.588582" xlink:href="#mf9951a09dd" y="47.49601"/>
     <use style="fill:#1f77b4;stroke:#ffffff;stroke-width:0.252982;" x="238.214593" xlink:href="#mf9951a09dd" y="47.700093"/>
     <use style="fill:#1f77b4;stroke:#ffffff;stroke-width:0.252982;" x="234.700746" xlink:href="#mf9951a09dd" y="47.920423"/>
     <use style="fill:#1f77b4;stroke:#ffffff;stroke-width:0.252982;" x="231.044053" xlink:href="#mf9951a09dd" y="48.158631"/>
     <use style="fill:#1f77b4;stroke:#ffffff;stroke-width:0.252982;" x="227.241972" xlink:href="#mf9951a09dd" y="48.416545"/>
     <use style="fill:#1f77b4;stroke:#ffffff;stroke-width:0.252982;" x="223.292526" xlink:href="#mf9951a09dd" y="48.696217"/>
     <use style="fill:#1f77b4;stroke:#ffffff;stroke-width:0.252982;" x="219.194438" xlink:href="#mf9951a09dd" y="48.999957"/>
     <use style="fill:#1f77b4;stroke:#ffffff;stroke-width:0.252982;" x="214.947285" xlink:href="#mf9951a09dd" y="49.330363"/>
     <use style="fill:#1f77b4;stroke:#ffffff;stroke-width:0.252982;" x="210.55168" xlink:href="#mf9951a09dd" y="49.690359"/>
     <use style="fill:#1f77b4;stroke:#ffffff;stroke-width:0.252982;" x="206.009475" xlink:href="#mf9951a09dd" y="50.083236"/>
     <use style="fill:#1f77b4;stroke:#ffffff;stroke-width:0.252982;" x="201.32399" xlink:href="#mf9951a09dd" y="50.512699"/>
     <use style="fill:#1f77b4;stroke:#ffffff;stroke-width:0.252982;" x="196.500267" xlink:href="#mf9951a09dd" y="50.982905"/>
     <use style="fill:#1f77b4;stroke:#ffffff;stroke-width:0.252982;" x="191.545342" xlink:href="#mf9951a09dd" y="51.498517"/>
     <use style="fill:#1f77b4;stroke:#ffffff;stroke-width:0.252982;" x="186.468528" xlink:href="#mf9951a09dd" y="52.06474"/>
     <use style="fill:#1f77b4;stroke:#ffffff;stroke-width:0.252982;" x="181.281698" xlink:href="#mf9951a09dd" y="52.687364"/>
     <use style="fill:#1f77b4;stroke:#ffffff;stroke-width:0.252982;" x="175.999551" xlink:href="#mf9951a09dd" y="53.372783"/>
     <use style="fill:#1f77b4;stroke:#ffffff;stroke-width:0.252982;" x="170.639821" xlink:href="#mf9951a09dd" y="54.128004"/>
     <use style="fill:#1f77b4;stroke:#ffffff;stroke-width:0.252982;" x="165.223413" xlink:href="#mf9951a09dd" y="54.960624"/>
     <use style="fill:#1f77b4;stroke:#ffffff;stroke-width:0.252982;" x="159.774408" xlink:href="#mf9951a09dd" y="55.87877"/>
     <use style="fill:#1f77b4;stroke:#ffffff;stroke-width:0.252982;" x="154.319897" xlink:href="#mf9951a09dd" y="56.890992"/>
     <use style="fill:#1f77b4;stroke:#ffffff;stroke-width:0.252982;" x="148.889597" xlink:href="#mf9951a09dd" y="58.0061"/>
     <use style="fill:#1f77b4;stroke:#ffffff;stroke-width:0.252982;" x="143.515215" xlink:href="#mf9951a09dd" y="59.232938"/>
     <use style="fill:#1f77b4;stroke:#ffffff;stroke-width:0.252982;" x="138.229556" xlink:href="#mf9951a09dd" y="60.580107"/>
     <use style="fill:#1f77b4;stroke:#ffffff;stroke-width:0.252982;" x="133.065396" xlink:href="#mf9951a09dd" y="62.055633"/>
     <use style="fill:#1f77b4;stroke:#ffffff;stroke-width:0.252982;" x="128.054205" xlink:href="#mf9951a09dd" y="63.666618"/>
     <use style="fill:#1f77b4;stroke:#ffffff;stroke-width:0.252982;" x="123.224814" xlink:href="#mf9951a09dd" y="65.418903"/>
     <use style="fill:#1f77b4;stroke:#ffffff;stroke-width:0.252982;" x="118.602197" xlink:href="#mf9951a09dd" y="67.316765"/>
     <use style="fill:#1f77b4;stroke:#ffffff;stroke-width:0.252982;" x="114.206479" xlink:href="#mf9951a09dd" y="69.3627"/>
     <use style="fill:#1f77b4;stroke:#ffffff;stroke-width:0.252982;" x="110.052314" xlink:href="#mf9951a09dd" y="71.557302"/>
     <use style="fill:#1f77b4;stroke:#ffffff;stroke-width:0.252982;" x="106.148663" xlink:href="#mf9951a09dd" y="73.899261"/>
     <use style="fill:#1f77b4;stroke:#ffffff;stroke-width:0.252982;" x="102.498987" xlink:href="#mf9951a09dd" y="76.385447"/>
     <use style="fill:#1f77b4;stroke:#ffffff;stroke-width:0.252982;" x="99.101773" xlink:href="#mf9951a09dd" y="79.011087"/>
     <use style="fill:#1f77b4;stroke:#ffffff;stroke-width:0.252982;" x="95.951296" xlink:href="#mf9951a09dd" y="81.769988"/>
     <use style="fill:#1f77b4;stroke:#ffffff;stroke-width:0.252982;" x="93.038498" xlink:href="#mf9951a09dd" y="84.654782"/>
     <use style="fill:#1f77b4;stroke:#ffffff;stroke-width:0.252982;" x="90.351885" xlink:href="#mf9951a09dd" y="87.65717"/>
     <use style="fill:#1f77b4;stroke:#ffffff;stroke-width:0.252982;" x="87.878351" xlink:href="#mf9951a09dd" y="90.768145"/>
     <use style="fill:#1f77b4;stroke:#ffffff;stroke-width:0.252982;" x="85.603903" xlink:href="#mf9951a09dd" y="93.978184"/>
     <use style="fill:#1f77b4;stroke:#ffffff;stroke-width:0.252982;" x="83.514231" xlink:href="#mf9951a09dd" y="97.277412"/>
     <use style="fill:#1f77b4;stroke:#ffffff;stroke-width:0.252982;" x="81.595163" xlink:href="#mf9951a09dd" y="100.655732"/>
     <use style="fill:#1f77b4;stroke:#ffffff;stroke-width:0.252982;" x="79.832979" xlink:href="#mf9951a09dd" y="104.10293"/>
     <use style="fill:#1f77b4;stroke:#ffffff;stroke-width:0.252982;" x="78.214627" xlink:href="#mf9951a09dd" y="107.608761"/>
     <use style="fill:#1f77b4;stroke:#ffffff;stroke-width:0.252982;" x="76.727857" xlink:href="#mf9951a09dd" y="111.163021"/>
     <use style="fill:#1f77b4;stroke:#ffffff;stroke-width:0.252982;" x="75.361281" xlink:href="#mf9951a09dd" y="114.755604"/>
     <use style="fill:#1f77b4;stroke:#ffffff;stroke-width:0.252982;" x="74.104401" xlink:href="#mf9951a09dd" y="118.376559"/>
     <use style="fill:#1f77b4;stroke:#ffffff;stroke-width:0.252982;" x="72.947588" xlink:href="#mf9951a09dd" y="122.016139"/>
     <use style="fill:#1f77b4;stroke:#ffffff;stroke-width:0.252982;" x="71.882048" xlink:href="#mf9951a09dd" y="125.664848"/>
     <use style="fill:#1f77b4;stroke:#ffffff;stroke-width:0.252982;" x="70.899779" xlink:href="#mf9951a09dd" y="129.313485"/>
     <use style="fill:#1f77b4;stroke:#ffffff;stroke-width:0.252982;" x="69.993509" xlink:href="#mf9951a09dd" y="132.953194"/>
     <use style="fill:#1f77b4;stroke:#ffffff;stroke-width:0.252982;" x="69.156641" xlink:href="#mf9951a09dd" y="136.575497"/>
     <use style="fill:#1f77b4;stroke:#ffffff;stroke-width:0.252982;" x="68.383195" xlink:href="#mf9951a09dd" y="140.172341"/>
     <use style="fill:#1f77b4;stroke:#ffffff;stroke-width:0.252982;" x="67.667751" xlink:href="#mf9951a09dd" y="143.736129"/>
     <use style="fill:#1f77b4;stroke:#ffffff;stroke-width:0.252982;" x="67.005396" xlink:href="#mf9951a09dd" y="147.259754"/>
     <use style="fill:#1f77b4;stroke:#ffffff;stroke-width:0.252982;" x="66.391677" xlink:href="#mf9951a09dd" y="150.736623"/>
     <use style="fill:#1f77b4;stroke:#ffffff;stroke-width:0.252982;" x="65.822553" xlink:href="#mf9951a09dd" y="154.160677"/>
     <use style="fill:#1f77b4;stroke:#ffffff;stroke-width:0.252982;" x="65.294356" xlink:href="#mf9951a09dd" y="157.526411"/>
     <use style="fill:#1f77b4;stroke:#ffffff;stroke-width:0.252982;" x="64.803755" xlink:href="#mf9951a09dd" y="160.828875"/>
     <use style="fill:#1f77b4;stroke:#ffffff;stroke-width:0.252982;" x="64.34772" xlink:href="#mf9951a09dd" y="164.063681"/>
     <use style="fill:#1f77b4;stroke:#ffffff;stroke-width:0.252982;" x="63.923491" xlink:href="#mf9951a09dd" y="167.226996"/>
     <use style="fill:#1f77b4;stroke:#ffffff;stroke-width:0.252982;" x="63.528558" xlink:href="#mf9951a09dd" y="170.315533"/>
     <use style="fill:#1f77b4;stroke:#ffffff;stroke-width:0.252982;" x="63.16063" xlink:href="#mf9951a09dd" y="173.326539"/>
     <use style="fill:#1f77b4;stroke:#ffffff;stroke-width:0.252982;" x="62.817616" xlink:href="#mf9951a09dd" y="176.257768"/>
     <use style="fill:#1f77b4;stroke:#ffffff;stroke-width:0.252982;" x="62.497605" xlink:href="#mf9951a09dd" y="179.107465"/>
     <use style="fill:#1f77b4;stroke:#ffffff;stroke-width:0.252982;" x="62.198851" xlink:href="#mf9951a09dd" y="181.874336"/>
     <use style="fill:#1f77b4;stroke:#ffffff;stroke-width:0.252982;" x="61.919757" xlink:href="#mf9951a09dd" y="184.557516"/>
     <use style="fill:#1f77b4;stroke:#ffffff;stroke-width:0.252982;" x="61.658857" xlink:href="#mf9951a09dd" y="187.156543"/>
     <use style="fill:#1f77b4;stroke:#ffffff;stroke-width:0.252982;" x="61.414811" xlink:href="#mf9951a09dd" y="189.671322"/>
     <use style="fill:#1f77b4;stroke:#ffffff;stroke-width:0.252982;" x="61.186386" xlink:href="#mf9951a09dd" y="192.102093"/>
     <use style="fill:#1f77b4;stroke:#ffffff;stroke-width:0.252982;" x="60.972453" xlink:href="#mf9951a09dd" y="194.449399"/>
     <use style="fill:#1f77b4;stroke:#ffffff;stroke-width:0.252982;" x="60.771973" xlink:href="#mf9951a09dd" y="196.714056"/>
     <use style="fill:#1f77b4;stroke:#ffffff;stroke-width:0.252982;" x="60.58399" xlink:href="#mf9951a09dd" y="198.897117"/>
     <use style="fill:#1f77b4;stroke:#ffffff;stroke-width:0.252982;" x="60.407624" xlink:href="#mf9951a09dd" y="200.999844"/>
     <use style="fill:#1f77b4;stroke:#ffffff;stroke-width:0.252982;" x="60.242068" xlink:href="#mf9951a09dd" y="203.023684"/>
     <use style="fill:#1f77b4;stroke:#ffffff;stroke-width:0.252982;" x="60.086573" xlink:href="#mf9951a09dd" y="204.970236"/>
     <use style="fill:#1f77b4;stroke:#ffffff;stroke-width:0.252982;" x="59.940452" xlink:href="#mf9951a09dd" y="206.841229"/>
     <use style="fill:#1f77b4;stroke:#ffffff;stroke-width:0.252982;" x="59.80307" xlink:href="#mf9951a09dd" y="208.638499"/>
     <use style="fill:#1f77b4;stroke:#ffffff;stroke-width:0.252982;" x="59.67384" xlink:href="#mf9951a09dd" y="210.363968"/>
     <use style="fill:#1f77b4;stroke:#ffffff;stroke-width:0.252982;" x="59.552219" xlink:href="#mf9951a09dd" y="212.019624"/>
     <use style="fill:#1f77b4;stroke:#ffffff;stroke-width:0.252982;" x="59.437706" xlink:href="#mf9951a09dd" y="213.607504"/>
     <use style="fill:#1f77b4;stroke:#ffffff;stroke-width:0.252982;" x="59.329836" xlink:href="#mf9951a09dd" y="215.12968"/>
     <use style="fill:#1f77b4;stroke:#ffffff;stroke-width:0.252982;" x="59.22818" xlink:href="#mf9951a09dd" y="216.588242"/>
     <use style="fill:#1f77b4;stroke:#ffffff;stroke-width:0.252982;" x="59.132338" xlink:href="#mf9951a09dd" y="217.985288"/>
     <use style="fill:#1f77b4;stroke:#ffffff;stroke-width:0.252982;" x="59.041941" xlink:href="#mf9951a09dd" y="219.322913"/>
     <use style="fill:#1f77b4;stroke:#ffffff;stroke-width:0.252982;" x="58.956645" xlink:href="#mf9951a09dd" y="220.603198"/>
     <use style="fill:#1f77b4;stroke:#ffffff;stroke-width:0.252982;" x="58.876132" xlink:href="#mf9951a09dd" y="221.828204"/>
     <use style="fill:#1f77b4;stroke:#ffffff;stroke-width:0.252982;" x="58.800105" xlink:href="#mf9951a09dd" y="222.999966"/>
     <use style="fill:#1f77b4;stroke:#ffffff;stroke-width:0.252982;" x="58.728289" xlink:href="#mf9951a09dd" y="224.120481"/>
     <use style="fill:#1f77b4;stroke:#ffffff;stroke-width:0.252982;" x="58.660426" xlink:href="#mf9951a09dd" y="225.191713"/>
     <use style="fill:#1f77b4;stroke:#ffffff;stroke-width:0.252982;" x="58.596278" xlink:href="#mf9951a09dd" y="226.215578"/>
     <use style="fill:#1f77b4;stroke:#ffffff;stroke-width:0.252982;" x="58.535622" xlink:href="#mf9951a09dd" y="227.19395"/>
     <use style="fill:#1f77b4;stroke:#ffffff;stroke-width:0.252982;" x="58.47825" xlink:href="#mf9951a09dd" y="228.128652"/>
     <use style="fill:#1f77b4;stroke:#ffffff;stroke-width:0.252982;" x="58.423968" xlink:href="#mf9951a09dd" y="229.021458"/>
     <use style="fill:#1f77b4;stroke:#ffffff;stroke-width:0.252982;" x="58.372596" xlink:href="#mf9951a09dd" y="229.87409"/>
     <use style="fill:#1f77b4;stroke:#ffffff;stroke-width:0.252982;" x="58.323963" xlink:href="#mf9951a09dd" y="230.688216"/>
     <use style="fill:#1f77b4;stroke:#ffffff;stroke-width:0.252982;" x="58.277911" xlink:href="#mf9951a09dd" y="231.465452"/>
     <use style="fill:#1f77b4;stroke:#ffffff;stroke-width:0.252982;" x="58.234294" xlink:href="#mf9951a09dd" y="232.207358"/>
     <use style="fill:#1f77b4;stroke:#ffffff;stroke-width:0.252982;" x="58.19297" xlink:href="#mf9951a09dd" y="232.915443"/>
     <use style="fill:#1f77b4;stroke:#ffffff;stroke-width:0.252982;" x="58.153812" xlink:href="#mf9951a09dd" y="233.591161"/>
     <use style="fill:#1f77b4;stroke:#ffffff;stroke-width:0.252982;" x="58.116698" xlink:href="#mf9951a09dd" y="234.235913"/>
     <use style="fill:#1f77b4;stroke:#ffffff;stroke-width:0.252982;" x="58.081512" xlink:href="#mf9951a09dd" y="234.85105"/>
     <use style="fill:#1f77b4;stroke:#ffffff;stroke-width:0.252982;" x="58.048148" xlink:href="#mf9951a09dd" y="235.437869"/>
     <use style="fill:#1f77b4;stroke:#ffffff;stroke-width:0.252982;" x="58.016505" xlink:href="#mf9951a09dd" y="235.99762"/>
     <use style="fill:#1f77b4;stroke:#ffffff;stroke-width:0.252982;" x="57.98649" xlink:href="#mf9951a09dd" y="236.531502"/>
     <use style="fill:#1f77b4;stroke:#ffffff;stroke-width:0.252982;" x="57.958012" xlink:href="#mf9951a09dd" y="237.040666"/>
     <use style="fill:#1f77b4;stroke:#ffffff;stroke-width:0.252982;" x="57.930989" xlink:href="#mf9951a09dd" y="237.526218"/>
     <use style="fill:#1f77b4;stroke:#ffffff;stroke-width:0.252982;" x="57.905343" xlink:href="#mf9951a09dd" y="237.989218"/>
     <use style="fill:#1f77b4;stroke:#ffffff;stroke-width:0.252982;" x="57.880998" xlink:href="#mf9951a09dd" y="238.430682"/>
     <use style="fill:#1f77b4;stroke:#ffffff;stroke-width:0.252982;" x="57.857886" xlink:href="#mf9951a09dd" y="238.851584"/>
     <use style="fill:#1f77b4;stroke:#ffffff;stroke-width:0.252982;" x="57.835941" xlink:href="#mf9951a09dd" y="239.252856"/>
     <use style="fill:#1f77b4;stroke:#ffffff;stroke-width:0.252982;" x="57.815101" xlink:href="#mf9951a09dd" y="239.635393"/>
     <use style="fill:#1f77b4;stroke:#ffffff;stroke-width:0.252982;" x="57.795308" xlink:href="#mf9951a09dd" y="240.000048"/>
     <use style="fill:#1f77b4;stroke:#ffffff;stroke-width:0.252982;" x="57.776506" xlink:href="#mf9951a09dd" y="240.34764"/>
     <use style="fill:#1f77b4;stroke:#ffffff;stroke-width:0.252982;" x="57.758645" xlink:href="#mf9951a09dd" y="240.678951"/>
     <use style="fill:#1f77b4;stroke:#ffffff;stroke-width:0.252982;" x="57.741675" xlink:href="#mf9951a09dd" y="240.99473"/>
     <use style="fill:#1f77b4;stroke:#ffffff;stroke-width:0.252982;" x="57.72555" xlink:href="#mf9951a09dd" y="241.295692"/>
     <use style="fill:#1f77b4;stroke:#ffffff;stroke-width:0.252982;" x="57.710226" xlink:href="#mf9951a09dd" y="241.582521"/>
     <use style="fill:#1f77b4;stroke:#ffffff;stroke-width:0.252982;" x="57.695662" xlink:href="#mf9951a09dd" y="241.85587"/>
     <use style="fill:#1f77b4;stroke:#ffffff;stroke-width:0.252982;" x="57.681818" xlink:href="#mf9951a09dd" y="242.116364"/>
    </g>
   </g>
   <g id="matplotlib.axis_1">
    <g id="xtick_1">
     <g id="line2d_1">
      <defs>
       <path d="M 0 0 
L 0 3.5 
" id="m5a0a5e5727" style="stroke:#000000;stroke-width:0.8;"/>
      </defs>
      <g>
       <use style="stroke:#000000;stroke-width:0.8;" x="57.410524" xlink:href="#m5a0a5e5727" y="252"/>
      </g>
     </g>
     <g id="text_1">
      <!-- 0.0 -->
      <g transform="translate(47.868649 268.118125)scale(0.12 -0.12)">
       <defs>
        <path d="M 31.78125 66.40625 
Q 24.171875 66.40625 20.328125 58.90625 
Q 16.5 51.421875 16.5 36.375 
Q 16.5 21.390625 20.328125 13.890625 
Q 24.171875 6.390625 31.78125 6.390625 
Q 39.453125 6.390625 43.28125 13.890625 
Q 47.125 21.390625 47.125 36.375 
Q 47.125 51.421875 43.28125 58.90625 
Q 39.453125 66.40625 31.78125 66.40625 
z
M 31.78125 74.21875 
Q 44.046875 74.21875 50.515625 64.515625 
Q 56.984375 54.828125 56.984375 36.375 
Q 56.984375 17.96875 50.515625 8.265625 
Q 44.046875 -1.421875 31.78125 -1.421875 
Q 19.53125 -1.421875 13.0625 8.265625 
Q 6.59375 17.96875 6.59375 36.375 
Q 6.59375 54.828125 13.0625 64.515625 
Q 19.53125 74.21875 31.78125 74.21875 
z
" id="DejaVuSans-48"/>
        <path d="M 10.6875 12.40625 
L 21 12.40625 
L 21 0 
L 10.6875 0 
z
" id="DejaVuSans-46"/>
       </defs>
       <use xlink:href="#DejaVuSans-48"/>
       <use x="63.623047" xlink:href="#DejaVuSans-46"/>
       <use x="95.410156" xlink:href="#DejaVuSans-48"/>
      </g>
     </g>
    </g>
    <g id="xtick_2">
     <g id="line2d_2">
      <g>
       <use style="stroke:#000000;stroke-width:0.8;" x="108.640963" xlink:href="#m5a0a5e5727" y="252"/>
      </g>
     </g>
     <g id="text_2">
      <!-- 0.2 -->
      <g transform="translate(99.099088 268.118125)scale(0.12 -0.12)">
       <defs>
        <path d="M 19.1875 8.296875 
L 53.609375 8.296875 
L 53.609375 0 
L 7.328125 0 
L 7.328125 8.296875 
Q 12.9375 14.109375 22.625 23.890625 
Q 32.328125 33.6875 34.8125 36.53125 
Q 39.546875 41.84375 41.421875 45.53125 
Q 43.3125 49.21875 43.3125 52.78125 
Q 43.3125 58.59375 39.234375 62.25 
Q 35.15625 65.921875 28.609375 65.921875 
Q 23.96875 65.921875 18.8125 64.3125 
Q 13.671875 62.703125 7.8125 59.421875 
L 7.8125 69.390625 
Q 13.765625 71.78125 18.9375 73 
Q 24.125 74.21875 28.421875 74.21875 
Q 39.75 74.21875 46.484375 68.546875 
Q 53.21875 62.890625 53.21875 53.421875 
Q 53.21875 48.921875 51.53125 44.890625 
Q 49.859375 40.875 45.40625 35.40625 
Q 44.1875 33.984375 37.640625 27.21875 
Q 31.109375 20.453125 19.1875 8.296875 
z
" id="DejaVuSans-50"/>
       </defs>
       <use xlink:href="#DejaVuSans-48"/>
       <use x="63.623047" xlink:href="#DejaVuSans-46"/>
       <use x="95.410156" xlink:href="#DejaVuSans-50"/>
      </g>
     </g>
    </g>
    <g id="xtick_3">
     <g id="line2d_3">
      <g>
       <use style="stroke:#000000;stroke-width:0.8;" x="159.871403" xlink:href="#m5a0a5e5727" y="252"/>
      </g>
     </g>
     <g id="text_3">
      <!-- 0.4 -->
      <g transform="translate(150.329528 268.118125)scale(0.12 -0.12)">
       <defs>
        <path d="M 37.796875 64.3125 
L 12.890625 25.390625 
L 37.796875 25.390625 
z
M 35.203125 72.90625 
L 47.609375 72.90625 
L 47.609375 25.390625 
L 58.015625 25.390625 
L 58.015625 17.1875 
L 47.609375 17.1875 
L 47.609375 0 
L 37.796875 0 
L 37.796875 17.1875 
L 4.890625 17.1875 
L 4.890625 26.703125 
z
" id="DejaVuSans-52"/>
       </defs>
       <use xlink:href="#DejaVuSans-48"/>
       <use x="63.623047" xlink:href="#DejaVuSans-46"/>
       <use x="95.410156" xlink:href="#DejaVuSans-52"/>
      </g>
     </g>
    </g>
    <g id="xtick_4">
     <g id="line2d_4">
      <g>
       <use style="stroke:#000000;stroke-width:0.8;" x="211.101843" xlink:href="#m5a0a5e5727" y="252"/>
      </g>
     </g>
     <g id="text_4">
      <!-- 0.6 -->
      <g transform="translate(201.559968 268.118125)scale(0.12 -0.12)">
       <defs>
        <path d="M 33.015625 40.375 
Q 26.375 40.375 22.484375 35.828125 
Q 18.609375 31.296875 18.609375 23.390625 
Q 18.609375 15.53125 22.484375 10.953125 
Q 26.375 6.390625 33.015625 6.390625 
Q 39.65625 6.390625 43.53125 10.953125 
Q 47.40625 15.53125 47.40625 23.390625 
Q 47.40625 31.296875 43.53125 35.828125 
Q 39.65625 40.375 33.015625 40.375 
z
M 52.59375 71.296875 
L 52.59375 62.3125 
Q 48.875 64.0625 45.09375 64.984375 
Q 41.3125 65.921875 37.59375 65.921875 
Q 27.828125 65.921875 22.671875 59.328125 
Q 17.53125 52.734375 16.796875 39.40625 
Q 19.671875 43.65625 24.015625 45.921875 
Q 28.375 48.1875 33.59375 48.1875 
Q 44.578125 48.1875 50.953125 41.515625 
Q 57.328125 34.859375 57.328125 23.390625 
Q 57.328125 12.15625 50.6875 5.359375 
Q 44.046875 -1.421875 33.015625 -1.421875 
Q 20.359375 -1.421875 13.671875 8.265625 
Q 6.984375 17.96875 6.984375 36.375 
Q 6.984375 53.65625 15.1875 63.9375 
Q 23.390625 74.21875 37.203125 74.21875 
Q 40.921875 74.21875 44.703125 73.484375 
Q 48.484375 72.75 52.59375 71.296875 
z
" id="DejaVuSans-54"/>
       </defs>
       <use xlink:href="#DejaVuSans-48"/>
       <use x="63.623047" xlink:href="#DejaVuSans-46"/>
       <use x="95.410156" xlink:href="#DejaVuSans-54"/>
      </g>
     </g>
    </g>
    <g id="xtick_5">
     <g id="line2d_5">
      <g>
       <use style="stroke:#000000;stroke-width:0.8;" x="262.332283" xlink:href="#m5a0a5e5727" y="252"/>
      </g>
     </g>
     <g id="text_5">
      <!-- 0.8 -->
      <g transform="translate(252.790408 268.118125)scale(0.12 -0.12)">
       <defs>
        <path d="M 31.78125 34.625 
Q 24.75 34.625 20.71875 30.859375 
Q 16.703125 27.09375 16.703125 20.515625 
Q 16.703125 13.921875 20.71875 10.15625 
Q 24.75 6.390625 31.78125 6.390625 
Q 38.8125 6.390625 42.859375 10.171875 
Q 46.921875 13.96875 46.921875 20.515625 
Q 46.921875 27.09375 42.890625 30.859375 
Q 38.875 34.625 31.78125 34.625 
z
M 21.921875 38.8125 
Q 15.578125 40.375 12.03125 44.71875 
Q 8.5 49.078125 8.5 55.328125 
Q 8.5 64.0625 14.71875 69.140625 
Q 20.953125 74.21875 31.78125 74.21875 
Q 42.671875 74.21875 48.875 69.140625 
Q 55.078125 64.0625 55.078125 55.328125 
Q 55.078125 49.078125 51.53125 44.71875 
Q 48 40.375 41.703125 38.8125 
Q 48.828125 37.15625 52.796875 32.3125 
Q 56.78125 27.484375 56.78125 20.515625 
Q 56.78125 9.90625 50.3125 4.234375 
Q 43.84375 -1.421875 31.78125 -1.421875 
Q 19.734375 -1.421875 13.25 4.234375 
Q 6.78125 9.90625 6.78125 20.515625 
Q 6.78125 27.484375 10.78125 32.3125 
Q 14.796875 37.15625 21.921875 38.8125 
z
M 18.3125 54.390625 
Q 18.3125 48.734375 21.84375 45.5625 
Q 25.390625 42.390625 31.78125 42.390625 
Q 38.140625 42.390625 41.71875 45.5625 
Q 45.3125 48.734375 45.3125 54.390625 
Q 45.3125 60.0625 41.71875 63.234375 
Q 38.140625 66.40625 31.78125 66.40625 
Q 25.390625 66.40625 21.84375 63.234375 
Q 18.3125 60.0625 18.3125 54.390625 
z
" id="DejaVuSans-56"/>
       </defs>
       <use xlink:href="#DejaVuSans-48"/>
       <use x="63.623047" xlink:href="#DejaVuSans-46"/>
       <use x="95.410156" xlink:href="#DejaVuSans-56"/>
      </g>
     </g>
    </g>
    <g id="xtick_6">
     <g id="line2d_6">
      <g>
       <use style="stroke:#000000;stroke-width:0.8;" x="313.562722" xlink:href="#m5a0a5e5727" y="252"/>
      </g>
     </g>
     <g id="text_6">
      <!-- 1.0 -->
      <g transform="translate(304.020847 268.118125)scale(0.12 -0.12)">
       <defs>
        <path d="M 12.40625 8.296875 
L 28.515625 8.296875 
L 28.515625 63.921875 
L 10.984375 60.40625 
L 10.984375 69.390625 
L 28.421875 72.90625 
L 38.28125 72.90625 
L 38.28125 8.296875 
L 54.390625 8.296875 
L 54.390625 0 
L 12.40625 0 
z
" id="DejaVuSans-49"/>
       </defs>
       <use xlink:href="#DejaVuSans-49"/>
       <use x="63.623047" xlink:href="#DejaVuSans-46"/>
       <use x="95.410156" xlink:href="#DejaVuSans-48"/>
      </g>
     </g>
    </g>
    <g id="text_7">
     <!-- Class I Fraction Bound -->
     <g transform="translate(112.535859 284.491719)scale(0.13 -0.13)">
      <defs>
       <path d="M 64.40625 67.28125 
L 64.40625 56.890625 
Q 59.421875 61.53125 53.78125 63.8125 
Q 48.140625 66.109375 41.796875 66.109375 
Q 29.296875 66.109375 22.65625 58.46875 
Q 16.015625 50.828125 16.015625 36.375 
Q 16.015625 21.96875 22.65625 14.328125 
Q 29.296875 6.6875 41.796875 6.6875 
Q 48.140625 6.6875 53.78125 8.984375 
Q 59.421875 11.28125 64.40625 15.921875 
L 64.40625 5.609375 
Q 59.234375 2.09375 53.4375 0.328125 
Q 47.65625 -1.421875 41.21875 -1.421875 
Q 24.65625 -1.421875 15.125 8.703125 
Q 5.609375 18.84375 5.609375 36.375 
Q 5.609375 53.953125 15.125 64.078125 
Q 24.65625 74.21875 41.21875 74.21875 
Q 47.75 74.21875 53.53125 72.484375 
Q 59.328125 70.75 64.40625 67.28125 
z
" id="DejaVuSans-67"/>
       <path d="M 9.421875 75.984375 
L 18.40625 75.984375 
L 18.40625 0 
L 9.421875 0 
z
" id="DejaVuSans-108"/>
       <path d="M 34.28125 27.484375 
Q 23.390625 27.484375 19.1875 25 
Q 14.984375 22.515625 14.984375 16.5 
Q 14.984375 11.71875 18.140625 8.90625 
Q 21.296875 6.109375 26.703125 6.109375 
Q 34.1875 6.109375 38.703125 11.40625 
Q 43.21875 16.703125 43.21875 25.484375 
L 43.21875 27.484375 
z
M 52.203125 31.203125 
L 52.203125 0 
L 43.21875 0 
L 43.21875 8.296875 
Q 40.140625 3.328125 35.546875 0.953125 
Q 30.953125 -1.421875 24.3125 -1.421875 
Q 15.921875 -1.421875 10.953125 3.296875 
Q 6 8.015625 6 15.921875 
Q 6 25.140625 12.171875 29.828125 
Q 18.359375 34.515625 30.609375 34.515625 
L 43.21875 34.515625 
L 43.21875 35.40625 
Q 43.21875 41.609375 39.140625 45 
Q 35.0625 48.390625 27.6875 48.390625 
Q 23 48.390625 18.546875 47.265625 
Q 14.109375 46.140625 10.015625 43.890625 
L 10.015625 52.203125 
Q 14.9375 54.109375 19.578125 55.046875 
Q 24.21875 56 28.609375 56 
Q 40.484375 56 46.34375 49.84375 
Q 52.203125 43.703125 52.203125 31.203125 
z
" id="DejaVuSans-97"/>
       <path d="M 44.28125 53.078125 
L 44.28125 44.578125 
Q 40.484375 46.53125 36.375 47.5 
Q 32.28125 48.484375 27.875 48.484375 
Q 21.1875 48.484375 17.84375 46.4375 
Q 14.5 44.390625 14.5 40.28125 
Q 14.5 37.15625 16.890625 35.375 
Q 19.28125 33.59375 26.515625 31.984375 
L 29.59375 31.296875 
Q 39.15625 29.25 43.1875 25.515625 
Q 47.21875 21.78125 47.21875 15.09375 
Q 47.21875 7.46875 41.1875 3.015625 
Q 35.15625 -1.421875 24.609375 -1.421875 
Q 20.21875 -1.421875 15.453125 -0.5625 
Q 10.6875 0.296875 5.421875 2 
L 5.421875 11.28125 
Q 10.40625 8.6875 15.234375 7.390625 
Q 20.0625 6.109375 24.8125 6.109375 
Q 31.15625 6.109375 34.5625 8.28125 
Q 37.984375 10.453125 37.984375 14.40625 
Q 37.984375 18.0625 35.515625 20.015625 
Q 33.0625 21.96875 24.703125 23.78125 
L 21.578125 24.515625 
Q 13.234375 26.265625 9.515625 29.90625 
Q 5.8125 33.546875 5.8125 39.890625 
Q 5.8125 47.609375 11.28125 51.796875 
Q 16.75 56 26.8125 56 
Q 31.78125 56 36.171875 55.265625 
Q 40.578125 54.546875 44.28125 53.078125 
z
" id="DejaVuSans-115"/>
       <path id="DejaVuSans-32"/>
       <path d="M 9.8125 72.90625 
L 19.671875 72.90625 
L 19.671875 0 
L 9.8125 0 
z
" id="DejaVuSans-73"/>
       <path d="M 9.8125 72.90625 
L 51.703125 72.90625 
L 51.703125 64.59375 
L 19.671875 64.59375 
L 19.671875 43.109375 
L 48.578125 43.109375 
L 48.578125 34.8125 
L 19.671875 34.8125 
L 19.671875 0 
L 9.8125 0 
z
" id="DejaVuSans-70"/>
       <path d="M 41.109375 46.296875 
Q 39.59375 47.171875 37.8125 47.578125 
Q 36.03125 48 33.890625 48 
Q 26.265625 48 22.1875 43.046875 
Q 18.109375 38.09375 18.109375 28.8125 
L 18.109375 0 
L 9.078125 0 
L 9.078125 54.6875 
L 18.109375 54.6875 
L 18.109375 46.1875 
Q 20.953125 51.171875 25.484375 53.578125 
Q 30.03125 56 36.53125 56 
Q 37.453125 56 38.578125 55.875 
Q 39.703125 55.765625 41.0625 55.515625 
z
" id="DejaVuSans-114"/>
       <path d="M 48.78125 52.59375 
L 48.78125 44.1875 
Q 44.96875 46.296875 41.140625 47.34375 
Q 37.3125 48.390625 33.40625 48.390625 
Q 24.65625 48.390625 19.8125 42.84375 
Q 14.984375 37.3125 14.984375 27.296875 
Q 14.984375 17.28125 19.8125 11.734375 
Q 24.65625 6.203125 33.40625 6.203125 
Q 37.3125 6.203125 41.140625 7.25 
Q 44.96875 8.296875 48.78125 10.40625 
L 48.78125 2.09375 
Q 45.015625 0.34375 40.984375 -0.53125 
Q 36.96875 -1.421875 32.421875 -1.421875 
Q 20.0625 -1.421875 12.78125 6.34375 
Q 5.515625 14.109375 5.515625 27.296875 
Q 5.515625 40.671875 12.859375 48.328125 
Q 20.21875 56 33.015625 56 
Q 37.15625 56 41.109375 55.140625 
Q 45.0625 54.296875 48.78125 52.59375 
z
" id="DejaVuSans-99"/>
       <path d="M 18.3125 70.21875 
L 18.3125 54.6875 
L 36.8125 54.6875 
L 36.8125 47.703125 
L 18.3125 47.703125 
L 18.3125 18.015625 
Q 18.3125 11.328125 20.140625 9.421875 
Q 21.96875 7.515625 27.59375 7.515625 
L 36.8125 7.515625 
L 36.8125 0 
L 27.59375 0 
Q 17.1875 0 13.234375 3.875 
Q 9.28125 7.765625 9.28125 18.015625 
L 9.28125 47.703125 
L 2.6875 47.703125 
L 2.6875 54.6875 
L 9.28125 54.6875 
L 9.28125 70.21875 
z
" id="DejaVuSans-116"/>
       <path d="M 9.421875 54.6875 
L 18.40625 54.6875 
L 18.40625 0 
L 9.421875 0 
z
M 9.421875 75.984375 
L 18.40625 75.984375 
L 18.40625 64.59375 
L 9.421875 64.59375 
z
" id="DejaVuSans-105"/>
       <path d="M 30.609375 48.390625 
Q 23.390625 48.390625 19.1875 42.75 
Q 14.984375 37.109375 14.984375 27.296875 
Q 14.984375 17.484375 19.15625 11.84375 
Q 23.34375 6.203125 30.609375 6.203125 
Q 37.796875 6.203125 41.984375 11.859375 
Q 46.1875 17.53125 46.1875 27.296875 
Q 46.1875 37.015625 41.984375 42.703125 
Q 37.796875 48.390625 30.609375 48.390625 
z
M 30.609375 56 
Q 42.328125 56 49.015625 48.375 
Q 55.71875 40.765625 55.71875 27.296875 
Q 55.71875 13.875 49.015625 6.21875 
Q 42.328125 -1.421875 30.609375 -1.421875 
Q 18.84375 -1.421875 12.171875 6.21875 
Q 5.515625 13.875 5.515625 27.296875 
Q 5.515625 40.765625 12.171875 48.375 
Q 18.84375 56 30.609375 56 
z
" id="DejaVuSans-111"/>
       <path d="M 54.890625 33.015625 
L 54.890625 0 
L 45.90625 0 
L 45.90625 32.71875 
Q 45.90625 40.484375 42.875 44.328125 
Q 39.84375 48.1875 33.796875 48.1875 
Q 26.515625 48.1875 22.3125 43.546875 
Q 18.109375 38.921875 18.109375 30.90625 
L 18.109375 0 
L 9.078125 0 
L 9.078125 54.6875 
L 18.109375 54.6875 
L 18.109375 46.1875 
Q 21.34375 51.125 25.703125 53.5625 
Q 30.078125 56 35.796875 56 
Q 45.21875 56 50.046875 50.171875 
Q 54.890625 44.34375 54.890625 33.015625 
z
" id="DejaVuSans-110"/>
       <path d="M 19.671875 34.8125 
L 19.671875 8.109375 
L 35.5 8.109375 
Q 43.453125 8.109375 47.28125 11.40625 
Q 51.125 14.703125 51.125 21.484375 
Q 51.125 28.328125 47.28125 31.5625 
Q 43.453125 34.8125 35.5 34.8125 
z
M 19.671875 64.796875 
L 19.671875 42.828125 
L 34.28125 42.828125 
Q 41.5 42.828125 45.03125 45.53125 
Q 48.578125 48.25 48.578125 53.8125 
Q 48.578125 59.328125 45.03125 62.0625 
Q 41.5 64.796875 34.28125 64.796875 
z
M 9.8125 72.90625 
L 35.015625 72.90625 
Q 46.296875 72.90625 52.390625 68.21875 
Q 58.5 63.53125 58.5 54.890625 
Q 58.5 48.1875 55.375 44.234375 
Q 52.25 40.28125 46.1875 39.3125 
Q 53.46875 37.75 57.5 32.78125 
Q 61.53125 27.828125 61.53125 20.40625 
Q 61.53125 10.640625 54.890625 5.3125 
Q 48.25 0 35.984375 0 
L 9.8125 0 
z
" id="DejaVuSans-66"/>
       <path d="M 8.5 21.578125 
L 8.5 54.6875 
L 17.484375 54.6875 
L 17.484375 21.921875 
Q 17.484375 14.15625 20.5 10.265625 
Q 23.53125 6.390625 29.59375 6.390625 
Q 36.859375 6.390625 41.078125 11.03125 
Q 45.3125 15.671875 45.3125 23.6875 
L 45.3125 54.6875 
L 54.296875 54.6875 
L 54.296875 0 
L 45.3125 0 
L 45.3125 8.40625 
Q 42.046875 3.421875 37.71875 1 
Q 33.40625 -1.421875 27.6875 -1.421875 
Q 18.265625 -1.421875 13.375 4.4375 
Q 8.5 10.296875 8.5 21.578125 
z
M 31.109375 56 
z
" id="DejaVuSans-117"/>
       <path d="M 45.40625 46.390625 
L 45.40625 75.984375 
L 54.390625 75.984375 
L 54.390625 0 
L 45.40625 0 
L 45.40625 8.203125 
Q 42.578125 3.328125 38.25 0.953125 
Q 33.9375 -1.421875 27.875 -1.421875 
Q 17.96875 -1.421875 11.734375 6.484375 
Q 5.515625 14.40625 5.515625 27.296875 
Q 5.515625 40.1875 11.734375 48.09375 
Q 17.96875 56 27.875 56 
Q 33.9375 56 38.25 53.625 
Q 42.578125 51.265625 45.40625 46.390625 
z
M 14.796875 27.296875 
Q 14.796875 17.390625 18.875 11.75 
Q 22.953125 6.109375 30.078125 6.109375 
Q 37.203125 6.109375 41.296875 11.75 
Q 45.40625 17.390625 45.40625 27.296875 
Q 45.40625 37.203125 41.296875 42.84375 
Q 37.203125 48.484375 30.078125 48.484375 
Q 22.953125 48.484375 18.875 42.84375 
Q 14.796875 37.203125 14.796875 27.296875 
z
" id="DejaVuSans-100"/>
      </defs>
      <use xlink:href="#DejaVuSans-67"/>
      <use x="69.824219" xlink:href="#DejaVuSans-108"/>
      <use x="97.607422" xlink:href="#DejaVuSans-97"/>
      <use x="158.886719" xlink:href="#DejaVuSans-115"/>
      <use x="210.986328" xlink:href="#DejaVuSans-115"/>
      <use x="263.085938" xlink:href="#DejaVuSans-32"/>
      <use x="294.873047" xlink:href="#DejaVuSans-73"/>
      <use x="324.365234" xlink:href="#DejaVuSans-32"/>
      <use x="356.152344" xlink:href="#DejaVuSans-70"/>
      <use x="406.421875" xlink:href="#DejaVuSans-114"/>
      <use x="447.535156" xlink:href="#DejaVuSans-97"/>
      <use x="508.814453" xlink:href="#DejaVuSans-99"/>
      <use x="563.794922" xlink:href="#DejaVuSans-116"/>
      <use x="603.003906" xlink:href="#DejaVuSans-105"/>
      <use x="630.787109" xlink:href="#DejaVuSans-111"/>
      <use x="691.96875" xlink:href="#DejaVuSans-110"/>
      <use x="755.347656" xlink:href="#DejaVuSans-32"/>
      <use x="787.134766" xlink:href="#DejaVuSans-66"/>
      <use x="855.738281" xlink:href="#DejaVuSans-111"/>
      <use x="916.919922" xlink:href="#DejaVuSans-117"/>
      <use x="980.298828" xlink:href="#DejaVuSans-110"/>
      <use x="1043.677734" xlink:href="#DejaVuSans-100"/>
     </g>
    </g>
   </g>
   <g id="matplotlib.axis_2">
    <g id="ytick_1">
     <g id="line2d_7">
      <defs>
       <path d="M 0 0 
L -3.5 0 
" id="m13a435818c" style="stroke:#000000;stroke-width:0.8;"/>
      </defs>
      <g>
       <use style="stroke:#000000;stroke-width:0.8;" x="45" xlink:href="#m13a435818c" y="247.357769"/>
      </g>
     </g>
     <g id="text_8">
      <!-- 0.0 -->
      <g transform="translate(18.91625 251.916832)scale(0.12 -0.12)">
       <use xlink:href="#DejaVuSans-48"/>
       <use x="63.623047" xlink:href="#DejaVuSans-46"/>
       <use x="95.410156" xlink:href="#DejaVuSans-48"/>
      </g>
     </g>
    </g>
    <g id="ytick_2">
     <g id="line2d_8">
      <g>
       <use style="stroke:#000000;stroke-width:0.8;" x="45" xlink:href="#m13a435818c" y="206.760592"/>
      </g>
     </g>
     <g id="text_9">
      <!-- 0.2 -->
      <g transform="translate(18.91625 211.319655)scale(0.12 -0.12)">
       <use xlink:href="#DejaVuSans-48"/>
       <use x="63.623047" xlink:href="#DejaVuSans-46"/>
       <use x="95.410156" xlink:href="#DejaVuSans-50"/>
      </g>
     </g>
    </g>
    <g id="ytick_3">
     <g id="line2d_9">
      <g>
       <use style="stroke:#000000;stroke-width:0.8;" x="45" xlink:href="#m13a435818c" y="166.163416"/>
      </g>
     </g>
     <g id="text_10">
      <!-- 0.4 -->
      <g transform="translate(18.91625 170.722478)scale(0.12 -0.12)">
       <use xlink:href="#DejaVuSans-48"/>
       <use x="63.623047" xlink:href="#DejaVuSans-46"/>
       <use x="95.410156" xlink:href="#DejaVuSans-52"/>
      </g>
     </g>
    </g>
    <g id="ytick_4">
     <g id="line2d_10">
      <g>
       <use style="stroke:#000000;stroke-width:0.8;" x="45" xlink:href="#m13a435818c" y="125.566239"/>
      </g>
     </g>
     <g id="text_11">
      <!-- 0.6 -->
      <g transform="translate(18.91625 130.125302)scale(0.12 -0.12)">
       <use xlink:href="#DejaVuSans-48"/>
       <use x="63.623047" xlink:href="#DejaVuSans-46"/>
       <use x="95.410156" xlink:href="#DejaVuSans-54"/>
      </g>
     </g>
    </g>
    <g id="ytick_5">
     <g id="line2d_11">
      <g>
       <use style="stroke:#000000;stroke-width:0.8;" x="45" xlink:href="#m13a435818c" y="84.969063"/>
      </g>
     </g>
     <g id="text_12">
      <!-- 0.8 -->
      <g transform="translate(18.91625 89.528125)scale(0.12 -0.12)">
       <use xlink:href="#DejaVuSans-48"/>
       <use x="63.623047" xlink:href="#DejaVuSans-46"/>
       <use x="95.410156" xlink:href="#DejaVuSans-56"/>
      </g>
     </g>
    </g>
    <g id="ytick_6">
     <g id="line2d_12">
      <g>
       <use style="stroke:#000000;stroke-width:0.8;" x="45" xlink:href="#m13a435818c" y="44.371886"/>
      </g>
     </g>
     <g id="text_13">
      <!-- 1.0 -->
      <g transform="translate(18.91625 48.930949)scale(0.12 -0.12)">
       <use xlink:href="#DejaVuSans-49"/>
       <use x="63.623047" xlink:href="#DejaVuSans-46"/>
       <use x="95.410156" xlink:href="#DejaVuSans-48"/>
      </g>
     </g>
    </g>
    <g id="text_14">
     <!-- Class II Fraction Bound -->
     <g transform="translate(12.212656 217.161641)rotate(-90)scale(0.13 -0.13)">
      <use xlink:href="#DejaVuSans-67"/>
      <use x="69.824219" xlink:href="#DejaVuSans-108"/>
      <use x="97.607422" xlink:href="#DejaVuSans-97"/>
      <use x="158.886719" xlink:href="#DejaVuSans-115"/>
      <use x="210.986328" xlink:href="#DejaVuSans-115"/>
      <use x="263.085938" xlink:href="#DejaVuSans-32"/>
      <use x="294.873047" xlink:href="#DejaVuSans-73"/>
      <use x="324.365234" xlink:href="#DejaVuSans-73"/>
      <use x="353.857422" xlink:href="#DejaVuSans-32"/>
      <use x="385.644531" xlink:href="#DejaVuSans-70"/>
      <use x="435.914062" xlink:href="#DejaVuSans-114"/>
      <use x="477.027344" xlink:href="#DejaVuSans-97"/>
      <use x="538.306641" xlink:href="#DejaVuSans-99"/>
      <use x="593.287109" xlink:href="#DejaVuSans-116"/>
      <use x="632.496094" xlink:href="#DejaVuSans-105"/>
      <use x="660.279297" xlink:href="#DejaVuSans-111"/>
      <use x="721.460938" xlink:href="#DejaVuSans-110"/>
      <use x="784.839844" xlink:href="#DejaVuSans-32"/>
      <use x="816.626953" xlink:href="#DejaVuSans-66"/>
      <use x="885.230469" xlink:href="#DejaVuSans-111"/>
      <use x="946.412109" xlink:href="#DejaVuSans-117"/>
      <use x="1009.791016" xlink:href="#DejaVuSans-110"/>
      <use x="1073.169922" xlink:href="#DejaVuSans-100"/>
     </g>
    </g>
   </g>
   <g id="patch_3">
    <path d="M 45 252 
L 45 34.56 
" style="fill:none;stroke:#000000;stroke-linecap:square;stroke-linejoin:miter;stroke-width:1.5;"/>
   </g>
   <g id="patch_4">
    <path d="M 324 252 
L 324 34.56 
" style="fill:none;stroke:#000000;stroke-linecap:square;stroke-linejoin:miter;stroke-width:1.5;"/>
   </g>
   <g id="patch_5">
    <path d="M 45 252 
L 324 252 
" style="fill:none;stroke:#000000;stroke-linecap:square;stroke-linejoin:miter;stroke-width:1.5;"/>
   </g>
   <g id="patch_6">
    <path d="M 45 34.56 
L 324 34.56 
" style="fill:none;stroke:#000000;stroke-linecap:square;stroke-linejoin:miter;stroke-width:1.5;"/>
   </g>
  </g>
 </g>
 <defs>
  <clipPath id="p404fb28c5c">
   <rect height="217.44" width="279" x="45" y="34.56"/>
  </clipPath>
 </defs>
</svg>
